<svg t="1735739244007" class="icon" viewBox="0 0 1024 1024" version="1.1" xmlns="http://www.w3.org/2000/svg" p-id="30707" width="200" height="200"><path d="M327.997671 117.861158c0-32.423709 78.849775-58.706967 176.112027-58.706967s176.112028 26.283258 176.112028 58.706967c0 32.414835-78.849775 58.698094-176.112028 58.698093s-176.112028-26.283258-176.112027-58.698093z m-47.709172 351.476908c-17.015792-17.016679 20.692964-82.321081 84.235979-145.86321 57.373282-57.37417 116.189393-93.688014 139.58877-87.662031 23.410024-6.018884 82.219036 30.293185 139.58522 87.659369 63.541241 63.542128 101.250884 128.847418 84.22888 145.870309-17.016679 17.015792-82.321969-20.693851-145.863209-84.23598-9.604659-9.603771-18.618343-19.24836-26.942558-28.760734 4.936319 34.700645 7.759861 74.917934 7.759861 117.795493 0 130.910503-26.318752 237.037366-58.769082 237.037366-32.459203 0-58.769081-106.126863-58.769081-237.037366 0-42.876672 2.821768-83.093075 7.757199-117.792831-8.324215 9.512374-17.338787 19.156964-26.94167 28.760734-63.543016 63.542128-128.847418 101.251771-145.870309 84.228881z m-83.613061 386.081719c0-62.061144 141.177123-112.373795 315.328111-112.373795 174.142114 0 315.319237 50.312652 315.319238 112.373795 0 62.070017-141.177123 112.37912-315.319238 112.37912-174.150988 0-315.328111-50.309102-315.328111-112.37912z" fill="#89B7FF" p-id="30708"></path></svg>
