<?xml version="1.0" encoding="UTF-8"?>
<!DOCTYPE svg PUBLIC "-//W3C//DTD SVG 1.1//EN" "http://www.w3.org/Graphics/SVG/1.1/DTD/svg11.dtd">
<svg xmlns="http://www.w3.org/2000/svg" version="1.1" width="1052px" height="1053px" style="shape-rendering:geometricPrecision; text-rendering:geometricPrecision; image-rendering:optimizeQuality; fill-rule:evenodd; clip-rule:evenodd" xmlns:xlink="http://www.w3.org/1999/xlink">
<g><path style="opacity:0.998" fill="#ed4744" d="M 735.5,61.5 C 742.099,61.2153 747.599,63.5487 752,68.5C 765.094,82.9346 772.261,99.9346 773.5,119.5C 772.942,127.2 772.108,134.866 771,142.5C 765.586,151.249 758.753,158.749 750.5,165C 705.329,194.418 660.329,224.085 615.5,254C 554.513,296.161 493.18,337.828 431.5,379C 426.333,382.833 421.833,387.333 418,392.5C 416.209,397.583 416.543,402.583 419,407.5C 425.499,419.168 432.499,430.502 440,441.5C 470.55,478.39 502.217,514.39 535,549.5C 537.421,553.34 539.588,557.34 541.5,561.5C 533.421,572.383 522.755,579.55 509.5,583C 498.713,583.793 488.046,585.293 477.5,587.5C 469.248,586.379 461.581,583.546 454.5,579C 443.563,572.393 432.896,565.393 422.5,558C 413.477,549.976 404.81,541.642 396.5,533C 387.507,528.505 378.84,523.505 370.5,518C 341.075,487.568 317.575,453.068 300,414.5C 295.77,402.612 295.437,390.612 299,378.5C 303.26,361.136 311.76,346.303 324.5,334C 362.048,304.452 400.715,276.452 440.5,250C 531.486,190.168 623.486,131.834 716.5,75C 723.014,70.6369 729.347,66.1369 735.5,61.5 Z"/></g>
<g><path style="opacity:0.999" fill="#5170ff" d="M 599.5,352.5 C 601.144,352.286 602.644,352.62 604,353.5C 619.651,375.826 636.818,396.992 655.5,417C 687.46,443.291 719.126,469.957 750.5,497C 761.027,507.194 771.527,517.361 782,527.5C 798.373,545.537 814.373,563.871 830,582.5C 839.246,593.325 845.579,605.658 849,619.5C 854.181,657.638 838.681,683.138 802.5,696C 774.567,702.991 746.233,707.658 717.5,710C 625.418,719.037 533.418,727.704 441.5,736C 438.712,737.292 436.378,739.126 434.5,741.5C 433.008,739.834 431.175,738.834 429,738.5C 426.089,740.37 422.923,741.87 419.5,743C 410.77,743.876 402.104,743.542 393.5,742C 392.663,740.989 392.33,739.822 392.5,738.5C 385.669,737.809 379.336,739.143 373.5,742.5C 375.418,746.004 377.584,749.337 380,752.5C 409.757,786.926 440.924,820.093 473.5,852C 483.442,861.299 494.109,869.632 505.5,877C 511.972,880.065 518.472,882.898 525,885.5C 524.998,890.524 524.498,895.524 523.5,900.5C 524.822,900.33 525.989,900.663 527,901.5C 528.642,906.708 529.642,912.041 530,917.5C 540.765,943.921 534.599,965.755 511.5,983C 500.312,989.904 488.312,991.904 475.5,989C 464.455,986.476 454.455,981.81 445.5,975C 439.5,969.667 433.5,964.333 427.5,959C 384.196,913.696 340.196,869.029 295.5,825C 281.809,815.317 269.309,804.15 258,791.5C 239.049,766.214 219.716,741.214 200,716.5C 194.374,708.3 192.041,699.3 193,689.5C 196.622,683.544 201.289,678.544 207,674.5C 209.63,667.865 213.797,662.365 219.5,658C 226.328,653.085 233.328,648.419 240.5,644C 245.38,640.915 250.546,639.748 256,640.5C 262.524,639.077 269.024,637.411 275.5,635.5C 279.361,636.682 283.027,638.349 286.5,640.5C 291.181,639.156 295.847,637.823 300.5,636.5C 301.833,636.667 303.167,636.833 304.5,637C 306.88,640.258 309.38,643.424 312,646.5C 313.932,644.962 316.099,643.795 318.5,643C 326.74,640.619 335.073,638.619 343.5,637C 354.072,638.071 364.739,638.404 375.5,638C 425.533,633.3 475.533,628.3 525.5,623C 566.905,617.133 608.238,610.799 649.5,604C 666.984,600.976 684.317,597.309 701.5,593C 702.257,590.152 701.257,587.819 698.5,586C 663.066,562.277 629.066,536.611 596.5,509C 585.787,499.964 576.953,489.464 570,477.5C 564.337,442.777 566.337,408.444 576,374.5C 577.829,370.172 580.162,366.172 583,362.5C 588.014,358.248 593.514,354.915 599.5,352.5 Z"/></g>
</svg>
