<svg t="1735310148363" class="icon" viewBox="0 0 1024 1024" version="1.1" xmlns="http://www.w3.org/2000/svg" p-id="4287" width="200" height="200"><path d="M111.608173 812.872875c22.730931 7.686788 47.558259 3.014818 69.889877-13.317111 0.579005 0.898456 1.138044 1.776946 1.717049 2.655436-38.144439 23.270005-59.417876 55.764155-59.417875 91.991888 0 74.50195 87.63937 128.579005 208.401809 128.579005 64.049914 0 123.407893-16.631415 161.542349-44.882857 12.39869 0.698799 23.449696 0.698799 35.988145 0.019965 38.144439 28.24146 97.472469 44.862892 161.522384 44.862892 120.742474 0 208.421775-54.067072 208.421775-128.579005 0-36.137888-21.193574-68.53221-59.178287-91.832163 0.588988-0.87849 1.167993-1.766963 1.737014-2.675402 22.27172 16.212135 46.939323 20.894088 69.69022 13.197317 68.082982-23.130245 71.7966-141.906099 40.739978-241.924192-16.491655-53.048822-46.78958-94.627359-72.036188-122.289815 0.299485-3.833411 0.459211-7.646857 0.459211-11.500234 0-29.339573-7.676805-57.800655-22.83076-84.804242v-0.379348c0-192.898456-155.343004-349.85868-346.264857-349.858681-190.941819 0-346.284823 156.950242-346.284823 349.858681v1.237872c-14.82452 26.744034-22.351583 54.945562-22.351583 83.925753 0 3.493995 0.119794 7.017938 0.399314 10.621743-25.566058 27.822181-56.223366 69.710186-72.834816 123.178288-31.046639 100.068008-27.333021 218.803931 40.690064 241.91421z m27.36297-230.374045c14.684761-47.34862 43.794728-83.795976 65.617221-106.017782 5.380752-5.490563 7.836531-13.197317 6.63859-20.774294-0.798627-5.121198-1.217907-10.022773-1.217907-14.784589 0-20.894088 6.079551-41.478708 18.009047-61.124941 2.595539-4.292622 3.813446-9.284043 3.493995-14.285447-0.149743-1.856809-0.219623-3.713617-0.229606-5.580409 0-156.650757 125.923569-284.091717 280.697551-284.091717s280.697551 127.450944 280.697551 284.091717c0 1.6871-0.06988 3.324286-0.189674 4.971455-0.319451 5.011387 0.918421 10.012791 3.543909 14.285447 12.179067 19.805959 18.348464 40.57027 18.348464 61.713929 0 4.971455-0.439245 10.002808-1.307752 15.353611-1.297769 7.626891 1.177975 15.363594 6.578692 20.924037 21.552956 22.072064 50.363438 58.279832 64.958353 105.318983 25.975355 83.626267 16.871003 161.202932-7.916393 169.628451-12.847918 4.342536-28.061769-9.353923-37.535486-20.664483-5.141164-6.189362-12.917798-9.443769-21.14366-8.555295-8.026205 0.838559-15.10404 5.62034-18.877554 12.748089a312.243332 312.243332 0 0 1-30.118234 46.230541 24.295243 24.295243 0 0 0-4.382468 21.113711 24.288255 24.288255 0 0 0 14.15567 16.26205c33.871783 14.115739 53.268445 34.570582 53.268445 56.13352 0 40.650133-67.12463 73.703322-149.622836 73.703323-53.49805 0-103.292466-14.285447-129.916705-37.305881a24.260303 24.260303 0 0 0-15.862736-5.909842c-0.588988 0-1.217907 0.019966-1.806895 0.079862-16.751209 1.257838-29.828732 1.22789-46.110747-0.019965-6.678521-0.588988-12.867883 1.61722-17.729527 5.829979-26.664171 23.040399-76.458587 37.325846-129.96662 37.325847-82.488223 0-149.612853-33.05319-149.612853-73.703323 0-21.632819 19.506473-42.147559 53.49805-56.243332 7.017938-2.924973 12.25893-8.894712 14.175636-16.262049 1.936671-7.327406 0.329434-15.153954-4.342536-21.123694-11.440337-14.624864-21.552956-30.20808-30.098269-46.300421a24.247325 24.247325 0 0 0-18.917486-12.768055c-8.155982-0.858524-15.98253 2.375916-21.163625 8.555296-9.523631 11.400406-24.597723 25.386367-37.685228 20.834191-24.817345-8.385587-33.881766-85.942287-7.926377-169.58852zM119.67431 586.122602" fill="#323333" p-id="4288"></path></svg>
