<svg t="1735312680049" class="icon" viewBox="0 0 1024 1024" version="1.1" xmlns="http://www.w3.org/2000/svg" p-id="17575" width="200" height="200"><path d="M368 704C182.72 704 32 553.28 32 368S182.72 32 368 32 704 182.72 704 368 553.28 704 368 704z m0-608C218.016 96 96 218.016 96 368S218.016 640 368 640s272-122.016 272-272S517.984 96 368 96z" p-id="17576"></path><path d="M192 400a32 32 0 0 1-32-32C160 253.312 253.312 160 368 160a32 32 0 1 1 0 64A144.16 144.16 0 0 0 224 368a32 32 0 0 1-32 32zM896 997.44a95.616 95.616 0 0 1-67.872-28.064l-300.416-300.416a31.968 31.968 0 1 1 45.248-45.248l300.416 300.416a31.968 31.968 0 0 0 45.248 0l5.504-5.504a32 32 0 0 0 0-45.248l-300.416-300.416a31.968 31.968 0 1 1 45.248-45.248l300.416 300.416a96.064 96.064 0 0 1 0 135.744l-5.504 5.504A95.616 95.616 0 0 1 896 997.44z" p-id="17577"></path></svg>
