<svg t="1735741259994" class="icon" viewBox="0 0 1055 1024" version="1.1" xmlns="http://www.w3.org/2000/svg" p-id="8265" width="200" height="200"><path d="M899.312318 438.853753c-32.276303-25.137308-69.328694-40.923537-108.844542-51.380657a187.172393 187.172393 0 0 0-98.68907-1.106041c-41.024086 11.060415-71.490503 34.237013-87.779478 75.411922-20.109846 50.97846-21.115338 100.549231 3.26785 149.918903 6.988172 14.227716 13.674695 28.656531 19.657374 43.286444a105.124221 105.124221 0 0 1-5.580482 94.264904 268.918917 268.918917 0 0 1-39.314749 53.944662 149.064234 149.064234 0 0 0-25.640054 38.46008 145.142814 145.142814 0 0 0-13.423322 56.810316 129.004663 129.004663 0 0 0 18.048587 72.596544 104.923122 104.923122 0 0 0 77.221809 50.877911c44.694133 6.686524 85.466846-2.765104 121.614294-32.125479a358.70938 358.70938 0 0 0 55.302077-57.413611 1202.367699 1202.367699 0 0 0 114.575848-178.726257 402.196922 402.196922 0 0 0 42.130128-120.307155c0.904943-8.948882 2.061259-17.897763 2.564005-26.79637 3.720322-69.228145-21.065064-125.334616-75.110275-167.716116z m20.411494 198.031709c-6.686524 45.247154-25.137308 84.31053-41.979304 115.983538-27.751588 52.386149-45.599076 82.299545-82.148721 129.054937-8.144488 10.45712-60.329538 102.660764-148.863136 86.120416-39.767221-7.440643-67.367984-69.127596-50.274615-102.660764 28.053235-54.346859 52.386149-73.903684 69.580067-101.95692a143.68485 143.68485 0 0 0 17.093369-91.39925c-6.887622-40.219692-55.302077-94.063805-42.783697-155.851308 6.887622-34.086189 19.406001-67.31771 66.513316-75.411923 68.524301-12.116182 137.752446 22.87495 164.749914 43.990289 45.247154 35.041407 58.469378 81.746524 48.112807 152.130985zM669.607601 290.493363a94.667101 94.667101 0 0 0-37.404314-65.357c-33.784541-25.137308-76.920161-16.33925-97.331655 19.757924-23.427971 41.476558-7.792565 100.549231 33.231521 125.686538a64.100134 64.100134 0 0 0 92.70639-26.193074 93.058313 93.058313 0 0 0 8.798058-53.894388z m-42.783698 26.947194a28.907904 28.907904 0 0 1-41.376008 13.373048A43.688641 43.688641 0 0 1 568.103153 274.807683a29.008453 29.008453 0 0 1 43.588091-10.557669 42.733423 42.733423 0 0 1 17.998312 28.807355 41.878755 41.878755 0 0 1-2.865653 24.383188zM785.28949 234.587991a47.05704 47.05704 0 0 0-70.032539-17.093369c-31.572458 21.014789-41.426283 70.384461-20.109846 101.705547a46.353195 46.353195 0 0 0 65.658648 13.222223 72.395446 72.395446 0 0 0 32.326577-53.190543 74.004234 74.004234 0 0 0-7.84284-44.643858zM760.604654 276.667844a29.159277 29.159277 0 0 1-13.0714 21.467261 18.702157 18.702157 0 0 1-26.494722-5.329109A30.969163 30.969163 0 0 1 728.981921 251.530536a19.003805 19.003805 0 0 1 28.304609 6.887623 29.863121 29.863121 0 0 1 3.318124 18.249685zM893.078266 265.305781a40.471065 40.471065 0 0 0-59.324046-18.350235c-28.254334 16.439799-39.365024 58.519652-22.774401 86.422064a39.86777 39.86777 0 0 0 55.704274 14.780737 62.541621 62.541621 0 0 0 30.667515-44.090838 63.446564 63.446564 0 0 0-4.273342-38.761728z m-24.634562 35.192231a22.22138 22.22138 0 0 1-10.909591 15.735954 14.227716 14.227716 0 0 1-20.109847-5.027461 23.578795 23.578795 0 0 1 8.094214-30.818339 14.428815 14.428815 0 0 1 21.165613 6.5357 22.623577 22.623577 0 0 1 1.759611 13.62442zM992.622004 326.087791a39.465573 39.465573 0 0 0-54.749056-26.092525c-29.712298 11.915084-46.554294 51.129284-34.588936 80.439384A38.862278 38.862278 0 0 0 955.21769 402.354382a61.536129 61.536129 0 0 0 36.097174-38.359531 62.340523 62.340523 0 0 0 1.30714-37.90706z m-30.164769 29.511199a20.964515 20.964515 0 0 1-12.317281 13.121675 13.272498 13.272498 0 0 1-17.696665-7.591467 22.22138 22.22138 0 0 1 11.814535-27.500215 13.473597 13.473597 0 0 1 18.702157 8.898607 21.266162 21.266162 0 0 1-0.754119 13.021125zM1055.113351 417.838964a36.398821 36.398821 0 0 0-47.459237-30.164769c-28.706805 7.792565-48.615553 42.079853-40.772713 70.384461a35.896075 35.896075 0 0 0 45.247154 25.991976 57.313061 57.313061 0 0 0 37.354039-31.421635 58.067181 58.067181 0 0 0 5.630757-34.790033z m-32.77905 23.277147a17.395017 17.395017 0 0 1-11.311788 9.501902 10.859317 10.859317 0 0 1-13.674695-8.043939 18.350235 18.350235 0 0 1 12.31728-21.316436 11.060415 11.060415 0 0 1 14.37854 9.099705 17.445291 17.445291 0 0 1-1.709337 10.758768zM79.283068 395.215387c0.402197 8.948882 1.457964 17.847488 2.212083 26.846644a402.196922 402.196922 0 0 0 40.571615 120.659077 1202.367699 1202.367699 0 0 0 112.212941 180.435594 358.70938 358.70938 0 0 0 54.598232 58.117455c35.544153 29.812847 76.417415 39.817495 121.161823 33.683993a104.923122 104.923122 0 0 0 77.875379-49.872419 129.004663 129.004663 0 0 0 19.003805-72.345171 145.142814 145.142814 0 0 0-12.870302-57.162238 149.064234 149.064234 0 0 0-25.137307-38.812003 268.918917 268.918917 0 0 1-38.610905-54.447408 105.124221 105.124221 0 0 1-4.424166-93.963256c6.183778-14.579638 13.021125-28.907904 20.109846-43.03507 25.137308-48.917201 24.684836-98.638795 5.027462-149.868629-15.735955-41.476558-45.900724-65.055352-86.773986-76.618513a187.172393 187.172393 0 0 0-98.68907 0c-39.666671 10.054923-76.869887 25.137308-109.498112 49.972967-54.196035 41.376008-79.73554 97.180831-76.769338 166.408977z m104.068454-120.659077c27.248841-20.763416 96.929458-54.849605 165.302935-41.82848 47.006765 8.898607 59.122948 42.331226 65.357 76.46769 11.663711 62.139424-37.404314 115.128869-44.844957 155.449111a143.68485 143.68485 0 0 0 15.886778 91.600349c16.791721 28.254334 40.923537 48.112807 68.272928 102.811588 16.841996 33.734267-11.563162 95.069297-51.430932 102.007194-88.533597 15.333758-139.713156-77.523457-147.706819-88.081126-35.94635-47.207864-53.441916-77.372633-80.439385-130.110704-16.33925-31.874106-34.387837-71.138581-40.471065-116.486284-9.351078-70.635834 4.524715-117.139854 50.073517-151.929887zM396.163968 137.055237a64.100134 64.100134 0 0 0 92.354469 27.399666c41.325734-24.282639 57.765533-83.254763 34.840308-125.032968-20.109846-36.348547-62.994093-45.7499-97.080282-21.01479a94.667101 94.667101 0 0 0-38.258982 64.753705 93.058313 93.058313 0 0 0 8.144487 53.894387z m31.572459-50.777361a42.733423 42.733423 0 0 1 18.400509-28.555981 29.008453 29.008453 0 0 1 43.437267 11.11069 43.688641 43.688641 0 0 1-17.897763 55.804822 28.907904 28.907904 0 0 1-41.225184-13.875793 41.878755 41.878755 0 0 1-2.714829-24.483738zM264.796399 70.290548A72.395446 72.395446 0 0 0 296.62023 123.883288a46.353195 46.353195 0 0 0 65.809471-12.367555c21.618085-30.868614 12.41783-80.439384-18.903255-101.95692a47.05704 47.05704 0 0 0-70.384461 16.188426 74.004234 74.004234 0 0 0-8.345586 44.543309z m35.745251-20.109846a19.003805 19.003805 0 0 1 28.354883-6.5357 30.969163 30.969163 0 0 1 7.591467 41.17491 18.702157 18.702157 0 0 1-26.544997 5.027462 29.159277 29.159277 0 0 1-12.769752-21.618085 29.863121 29.863121 0 0 1 3.368399-18.249685zM160.12465 93.819068a62.541621 62.541621 0 0 0 30.164769 44.493035A39.86777 39.86777 0 0 0 246.345615 124.285485c16.942545-27.701313 6.384876-69.93199-21.668359-86.723711a40.471065 40.471065 0 0 0-59.776518 17.545841 63.446564 63.446564 0 0 0-4.776088 38.711453z m30.61724-16.99282A14.428815 14.428815 0 0 1 212.008053 70.541921a23.578795 23.578795 0 0 1 7.74229 30.918889 14.227716 14.227716 0 0 1-20.109846 5.027461 22.22138 22.22138 0 0 1-10.557669-15.836503 22.623577 22.623577 0 0 1 1.709337-13.82552zM65.357 152.690643a61.536129 61.536129 0 0 0 35.594427 38.812003 38.862278 38.862278 0 0 0 52.034227-21.517536c12.367555-29.159277-3.971695-68.574575-33.533168-80.891855a39.465573 39.465573 0 0 0-55.302077 25.38868 62.340523 62.340523 0 0 0 1.206591 38.208708z m28.656531-21.366712a13.473597 13.473597 0 0 1 18.802706-8.697508 22.22138 22.22138 0 0 1 11.462612 27.651038 13.272498 13.272498 0 0 1-17.797214 7.340094 20.964515 20.964515 0 0 1-12.116182-13.272498 21.266162 21.266162 0 0 1-0.100549-12.970851zM6.032954 240.57067a57.313061 57.313061 0 0 0 37.002117 31.924381 35.896075 35.896075 0 0 0 45.548801-25.137308c8.144488-28.455432-11.261514-63.044368-39.86777-71.239129a36.398821 36.398821 0 0 0-47.811159 29.360375 58.067181 58.067181 0 0 0 5.128011 35.091681z m25.790877-22.020281a11.060415 11.060415 0 0 1 14.47909-8.898607 18.350235 18.350235 0 0 1 12.065907 21.467261 10.859317 10.859317 0 0 1-13.775244 7.692016 18.249685 18.249685 0 0 1-12.769753-20.109846z" fill="#666666" p-id="8266"></path></svg>
