<svg t="1735310441254" class="icon" viewBox="0 0 1024 1024" version="1.1" xmlns="http://www.w3.org/2000/svg" p-id="4613" width="200" height="200"><path d="M498.77 345.7c26.33 0 43.93-17.64 43.93-43.9 0-26.56-17.57-43.74-43.93-43.74-26.37 0-52.83 17.18-52.83 43.74 0.03 26.27 26.49 43.9 52.83 43.9z m0 0M253.05 258.05c-26.33 0-52.95 17.18-52.95 43.74 0 26.26 26.62 43.9 52.95 43.9 26.24 0 43.8-17.63 43.8-43.9-0.01-26.56-17.55-43.74-43.8-43.74z m0 0" fill="#323333" p-id="4614"></path><path d="M1023.92 626.74c0-138.87-128.82-257.2-286.95-269.51 0.21-1.73 0.32-3.52-0.07-5.31-31.7-147.83-190.67-259.28-369.8-259.28-202.41 0-367.1 141.15-367.1 314.64 0 93.08 47.52 176.95 137.56 243.08l-31.39 94.36a16.08 16.08 0 0 0 4.7 17.15c2.97 2.56 6.72 3.9 10.5 3.9 2.43 0 4.9-0.57 7.16-1.7l117.84-58.97 14.52 2.95c36.29 7.46 67.61 13.92 106.21 13.92 11.36 0 42.62-4.16 45.25-7.49C454.84 820.81 571.96 897.56 709.76 897.56c35.3 0 71.03-8.51 103.1-16.54l90.84 49.66c2.41 1.31 5.06 2 7.67 2 3.59 0 7.18-1.21 10.05-3.56 5.05-4.1 7.13-10.85 5.25-17.03l-23.2-77.15c77.79-61.46 120.45-134.99 120.45-208.2z m-628.8 31.3c-9.22 0.79-18.56 1.19-27.84 1.19-31.29 0-57.76-5.41-88.36-11.74l-17.79-3.59c-3.06-0.65-6.29-0.23-9.09 1.21l-78.2 39.14 20.32-61.05c1.99-5.97-0.2-12.49-5.33-16.1C110.27 552.35 70.46 485.64 70.46 408.87c0-138.01 133.14-250.33 296.8-250.33 144.68 0 272.77 88.02 299.21 205.09-151.69 1.99-274.44 108.64-274.44 239.62 0 19.04 2.89 37.49 7.76 55.3-1.47-0.37-3.03-0.65-4.67-0.51z m462.52 138.85c-4.77 3.6-6.79 9.8-5.08 15.52l13.52 44.95-55.47-30.34a14.192 14.192 0 0 0-6.86-1.77c-1.16 0-2.34 0.15-3.49 0.46-29.75 7.51-60.53 15.27-90.5 15.27-139.22 0-252.48-95.68-252.48-213.27S570.53 414.47 709.76 414.47c136.56 0 251.95 97.64 251.95 213.22 0.01 58.63-36.95 118.73-104.07 169.2z m9.6 10.43" fill="#323333" p-id="4615"></path><path d="M612.94 512.59c-17.57 0-35.13 17.69-35.13 35.23 0 17.66 17.56 35.1 35.13 35.1 26.39 0 43.83-17.44 43.83-35.1 0-17.56-17.44-35.23-43.83-35.23z m0 0M805.95 512.59c-17.31 0-34.87 17.69-34.87 35.23 0 17.66 17.56 35.1 34.87 35.1 26.3 0 44.05-17.44 44.05-35.1 0-17.56-17.72-35.23-44.05-35.23z m0 0" fill="#323333" p-id="4616"></path></svg>
