<svg xmlns="http://www.w3.org/2000/svg" xmlns:xlink="http://www.w3.org/1999/xlink" width="500" zoomAndPan="magnify" viewBox="0 0 375 374.999991" height="500" preserveAspectRatio="xMidYMid meet" version="1.0"><defs><g/></defs><g fill="#ed4845" fill-opacity="1"><g transform="translate(86.327994, 150.186475)"><g><path d="M 148.21875 -79.890625 C 148.625 -79.359375 149.082031 -78.765625 149.59375 -78.109375 C 149.789062 -77.835938 149.992188 -77.570312 150.203125 -77.3125 C 151.421875 -75.726562 152.378906 -73.789062 153.078125 -71.5 C 153.785156 -69.207031 153.828125 -66.140625 153.203125 -62.296875 C 152.679688 -61.054688 152.179688 -60.195312 151.703125 -59.71875 C 151.234375 -59.25 150.863281 -58.914062 150.59375 -58.71875 C 150.300781 -58.269531 149.691406 -57.691406 148.765625 -56.984375 C 147.972656 -56.378906 146.929688 -55.6875 145.640625 -54.90625 C 132.890625 -46.613281 121.484375 -39.03125 111.421875 -32.15625 C 101.359375 -25.289062 88.234375 -16.382812 72.046875 -5.4375 C 71.648438 -5.132812 71.253906 -4.832031 70.859375 -4.53125 C 69.535156 -3.507812 68.691406 -2.546875 68.328125 -1.640625 C 67.972656 -0.742188 68.066406 0.332031 68.609375 1.59375 C 69.160156 2.851562 70.082031 4.460938 71.375 6.421875 C 72.25 7.835938 73.242188 9.269531 74.359375 10.71875 C 77.304688 14.5625 81.125 18.988281 85.8125 24 C 92.445312 31.3125 96.21875 35.5625 97.125 36.75 C 97.195312 37.101562 97.332031 37.414062 97.53125 37.6875 C 97.9375 38.21875 98.0625 38.648438 97.90625 38.984375 C 97.75 39.316406 97.335938 39.738281 96.671875 40.25 C 96.140625 40.65625 95.546875 41.113281 94.890625 41.625 C 92.296875 43.1875 90.171875 43.972656 88.515625 43.984375 C 86.609375 43.960938 85.09375 44.175781 83.96875 44.625 C 83.207031 45 82.148438 44.921875 80.796875 44.390625 C 79.441406 43.859375 77.335938 42.691406 74.484375 40.890625 C 70.421875 38.328125 67.726562 36.1875 66.40625 34.46875 C 66.207031 34.195312 66.003906 33.929688 65.796875 33.671875 C 64.546875 32.316406 62.800781 31.132812 60.5625 30.125 C 58.3125 29.113281 56.296875 27.507812 54.515625 25.3125 C 52.734375 23.113281 51.484375 21.550781 50.765625 20.625 C 48.640625 17.851562 46.539062 14.835938 44.46875 11.578125 C 41.851562 7.078125 40.289062 3.601562 39.78125 1.15625 C 39.28125 -1.28125 39.578125 -3.972656 40.671875 -6.921875 C 42.109375 -10.546875 43.273438 -12.859375 44.171875 -13.859375 C 45.078125 -14.867188 47.582031 -16.945312 51.6875 -20.09375 C 55.789062 -23.238281 60.789062 -26.851562 66.6875 -30.9375 C 76.882812 -37.90625 86.71875 -44.390625 96.1875 -50.390625 C 105.65625 -56.390625 116.992188 -63.515625 130.203125 -71.765625 C 138.753906 -77.046875 143.628906 -80.144531 144.828125 -81.0625 L 145.015625 -81.21875 C 145.285156 -81.414062 145.726562 -81.382812 146.34375 -81.125 C 146.957031 -80.863281 147.582031 -80.453125 148.21875 -79.890625 Z M 148.21875 -79.890625 "/></g></g></g><g fill="#5271ff" fill-opacity="1"><g transform="translate(67.591587, 228.40811)"><g><path d="M 172.640625 -49.3125 C 174.410156 -47.75 177.625 -44.25 182.28125 -38.8125 C 182.9375 -38.050781 183.585938 -37.289062 184.234375 -36.53125 C 187.054688 -33.238281 188.914062 -30.550781 189.8125 -28.46875 C 190.71875 -26.382812 190.96875 -23.523438 190.5625 -19.890625 C 190.15625 -16.265625 188.6875 -13.367188 186.15625 -11.203125 C 185.269531 -10.441406 183.410156 -9.34375 180.578125 -7.90625 C 177.742188 -6.46875 170.550781 -5.195312 159 -4.09375 C 124.34375 -0.757812 104.929688 1.148438 100.765625 1.640625 C 99.078125 1.992188 97.296875 2.09375 95.421875 1.9375 C 93.648438 1.914062 92.507812 2.125 92 2.5625 C 92 2.5625 91.9375 2.613281 91.8125 2.71875 C 91.789062 2.957031 91.71875 3.128906 91.59375 3.234375 C 91.46875 3.335938 91.34375 3.382812 91.21875 3.375 C 91.101562 3.375 90.9375 3.25 90.71875 3 C 90.28125 2.488281 89.6875 2.554688 88.9375 3.203125 C 88.175781 3.859375 86.765625 4.132812 84.703125 4.03125 C 82.648438 3.925781 81.515625 3.75 81.296875 3.5 C 81.179688 3.375 81.1875 3.253906 81.3125 3.140625 C 81.4375 3.035156 81.445312 2.921875 81.34375 2.796875 C 81.238281 2.671875 80.472656 2.671875 79.046875 2.796875 C 77.722656 3.046875 76.867188 3.332031 76.484375 3.65625 C 76.234375 3.875 77.410156 5.503906 80.015625 8.546875 C 81.640625 10.441406 84.925781 14.09375 89.875 19.5 C 94.832031 24.90625 99.195312 29.175781 102.96875 32.3125 C 106.75 35.445312 109.398438 37.132812 110.921875 37.375 C 111.972656 37.5625 112.601562 37.78125 112.8125 38.03125 C 113.03125 38.289062 112.976562 39.003906 112.65625 40.171875 C 112.457031 41.210938 112.410156 41.800781 112.515625 41.9375 C 112.617188 42.0625 112.734375 42.066406 112.859375 41.953125 C 112.984375 41.847656 113.101562 41.859375 113.21875 41.984375 C 113.4375 42.234375 113.628906 42.835938 113.796875 43.796875 C 113.878906 45.691406 114.191406 46.957031 114.734375 47.59375 C 115.492188 48.476562 115.691406 50.117188 115.328125 52.515625 C 114.960938 54.910156 114.125 56.890625 112.8125 58.453125 C 112.164062 59.222656 111.460938 59.929688 110.703125 60.578125 C 107.921875 62.960938 104.613281 63.710938 100.78125 62.828125 C 98.332031 62.273438 96.023438 61.117188 93.859375 59.359375 C 91.691406 57.597656 88.039062 54.09375 82.90625 48.84375 C 77.550781 43.101562 73.988281 39.457031 72.21875 37.90625 C 71.125 36.875 68.054688 33.796875 63.015625 28.671875 C 59.523438 24.859375 56.492188 22.082031 53.921875 20.34375 C 52.253906 18.90625 50.609375 17.238281 48.984375 15.34375 C 47.898438 14.070312 46.820312 12.6875 45.75 11.1875 C 42.332031 6.664062 39.59375 3.203125 37.53125 0.796875 C 33.101562 -4.628906 32.09375 -8.375 34.5 -10.4375 L 36.015625 -11.734375 C 36.648438 -12.273438 37.101562 -12.769531 37.375 -13.21875 L 37.8125 -14.25 C 38.09375 -14.695312 38.546875 -15.191406 39.171875 -15.734375 C 40.054688 -16.492188 41.585938 -17.585938 43.765625 -19.015625 C 45.941406 -20.441406 47.378906 -21.007812 48.078125 -20.71875 C 48.648438 -20.5625 49.789062 -20.769531 51.5 -21.34375 C 52.101562 -21.644531 52.722656 -21.738281 53.359375 -21.625 C 54.003906 -21.519531 54.460938 -21.304688 54.734375 -20.984375 C 55.003906 -20.671875 55.4375 -20.550781 56.03125 -20.625 C 56.632812 -20.707031 57.175781 -20.84375 57.65625 -21.03125 C 58.789062 -21.769531 59.679688 -21.757812 60.328125 -21 C 60.441406 -20.875 60.550781 -20.75 60.65625 -20.625 C 60.851562 -20.132812 61.0625 -19.765625 61.28125 -19.515625 C 61.601562 -19.140625 61.890625 -19.0625 62.140625 -19.28125 L 62.328125 -19.4375 C 62.710938 -19.757812 64.410156 -20.273438 67.421875 -20.984375 C 70.429688 -21.691406 72.15625 -21.789062 72.59375 -21.28125 C 72.695312 -21.15625 73.21875 -21.054688 74.15625 -20.984375 C 75.09375 -20.921875 76.039062 -20.96875 77 -21.125 C 80.582031 -21.5625 88.5 -22.304688 100.75 -23.359375 C 107.300781 -23.910156 117.875 -25.328125 132.46875 -27.609375 C 147.070312 -29.898438 154.753906 -31.367188 155.515625 -32.015625 C 155.765625 -32.234375 155.726562 -32.535156 155.40625 -32.921875 C 155.289062 -33.046875 155.125 -33.234375 154.90625 -33.484375 C 154.238281 -34.015625 152.5625 -35.210938 149.875 -37.078125 C 147.300781 -38.816406 145.007812 -40.472656 143 -42.046875 C 136.425781 -47.171875 132.171875 -50.601562 130.234375 -52.34375 C 128.304688 -54.09375 126.90625 -55.472656 126.03125 -56.484375 C 125.488281 -57.117188 124.925781 -57.898438 124.34375 -58.828125 C 123.769531 -59.765625 123.382812 -61.25 123.1875 -63.28125 C 122.832031 -66.257812 122.914062 -69.941406 123.4375 -74.328125 C 123.957031 -78.722656 124.535156 -81.960938 125.171875 -84.046875 C 125.765625 -85.648438 126.570312 -86.882812 127.59375 -87.75 C 128.09375 -88.1875 128.585938 -88.503906 129.078125 -88.703125 L 131.46875 -89.75 L 136.453125 -83.15625 C 137.515625 -81.65625 138.695312 -80.144531 140 -78.625 C 142.382812 -75.84375 145.070312 -73.210938 148.0625 -70.734375 C 159.863281 -61.296875 168.054688 -54.15625 172.640625 -49.3125 Z M 172.640625 -49.3125 "/></g></g></g></svg>